HIERARCHY
ROOT Hips
{
 OFFSET 0.000000 0.000000 0.000000
 CHANNELS 6 Xposition Yposition Zposition Yrotation Xrotation Zrotation
 JOINT Chest
 {
  OFFSET 0.000000 9.585900 0.002600
  CHANNELS 3 Yrotation Xrotation Zrotation
  JOINT Chest2
  {
   OFFSET 0.000000 9.601200 -0.005300
   CHANNELS 3 Yrotation Xrotation Zrotation
   JOINT Chest3
   {
    OFFSET 0.000000 9.561800 0.000000
    CHANNELS 3 Yrotation Xrotation Zrotation
    JOINT Chest4
    {
     OFFSET 0.000000 9.552100 0.000000
     CHANNELS 3 Yrotation Xrotation Zrotation
     JOINT Neck
     {
      OFFSET 0.000000 14.453000 0.000000
      CHANNELS 3 Yrotation Xrotation Zrotation
      JOINT Head
      {
       OFFSET 0.000000 8.936500 -0.011300
       CHANNELS 3 Yrotation Xrotation Zrotation
       End Site
       {
        OFFSET 0.000000 17.073600 -0.006000
       }
      }
     }
     JOINT RightCollar
     {
      OFFSET -2.921100 9.558500 0.000000
      CHANNELS 3 Yrotation Xrotation Zrotation
      JOINT RightShoulder
      {
       OFFSET -13.519700 0.000000 0.000000
       CHANNELS 3 Yrotation Xrotation Zrotation
       JOINT RightElbow
       {
        OFFSET 0.000000 -29.696600 0.000000
        CHANNELS 3 Yrotation Xrotation Zrotation
        JOINT RightWrist
        {
         OFFSET 0.000000 -24.004700 0.000000
         CHANNELS 3 Yrotation Xrotation Zrotation
         End Site
         {
          OFFSET 0.000000 -17.728500 0.000000
         }
        }
       }
      }
     }
     JOINT LeftCollar
     {
      OFFSET 2.921100 9.558500 0.000000
      CHANNELS 3 Yrotation Xrotation Zrotation
      JOINT LeftShoulder
      {
       OFFSET 13.519700 0.000000 0.000000
       CHANNELS 3 Yrotation Xrotation Zrotation
       JOINT LeftElbow
       {
        OFFSET 0.000000 -29.696600 0.000000
        CHANNELS 3 Yrotation Xrotation Zrotation
        JOINT LeftWrist
        {
         OFFSET 0.000000 -24.004700 0.000000
         CHANNELS 3 Yrotation Xrotation Zrotation
         End Site
         {
          OFFSET 0.000000 -17.728500 0.000000
         }
        }
       }
      }
     }
    }
   }
  }
 }
 JOINT RightHip
 {
  OFFSET -7.771700 -0.012900 -0.001300
  CHANNELS 3 Yrotation Xrotation Zrotation
  JOINT RightKnee
  {
   OFFSET 0.000000 -40.869800 0.001200
   CHANNELS 3 Yrotation Xrotation Zrotation
   JOINT RightAnkle
   {
    OFFSET 0.000000 -39.717900 0.002100
    CHANNELS 3 Yrotation Xrotation Zrotation
    JOINT RightToe
    {
     OFFSET 0.000000 -4.965400 11.033500
     CHANNELS 3 Yrotation Xrotation Zrotation
     End Site
     {
      OFFSET 0.000000 -1.423100 5.872300
     }
    }
   }
  }
 }
 JOINT LeftHip
 {
  OFFSET 7.771700 -0.012900 -0.001300
  CHANNELS 3 Yrotation Xrotation Zrotation
  JOINT LeftKnee
  {
   OFFSET 0.000000 -40.869800 0.001200
   CHANNELS 3 Yrotation Xrotation Zrotation
   JOINT LeftAnkle
   {
    OFFSET 0.000000 -39.717900 0.002100
    CHANNELS 3 Yrotation Xrotation Zrotation
    JOINT LeftToe
    {
     OFFSET 0.000000 -4.965400 11.033500
     CHANNELS 3 Yrotation Xrotation Zrotation
     End Site
     {
      OFFSET 0.000000 -1.423100 5.872300
     }
    }
   }
  }
 }
}
MOTION
Frames: 5
Frame Time: 0.008333
0.000000 85.388000 0.000000 0.000000 -5.767877 0.000000 0.000000 11.653817 0.000000 0.000000 -5.885947 0.000000 0.000000 -0.000000 0.000000 0.000000 -0.000000 0.000000 0.000000 12.528835 0.000000 0.000000 0.711642 0.000000 0.000000 -0.000000 0.000000 0.000000 0.000000 -90.000000 0.000000 -2.309062 0.000000 0.000000 2.309062 0.000000 0.000000 -0.000000 0.000000 0.000000 -0.000000 90.000000 0.000000 -2.309062 0.000000 0.000000 2.309062 0.000000 0.000000 8.520406 0.000000 0.000000 1.905762 0.000000 -0.000000 -4.658285 0.000000 0.000000 -0.000000 0.000000 0.000000 8.520406 0.000000 0.000000 1.905762 0.000000 -0.000000 -4.658285 0.000000 0.000000 -0.000000 0.000000
-51.475730 62.252275 13.989390 175.964044 -54.398142 0.116881 4.677150 26.807905 0.605973 0.696073 4.474086 0.054311 1.102610 7.114388 0.127328 3.542006 21.567540 0.789706 4.158539 18.226639 6.363886 5.634007 -1.906913 10.226846 6.095931 8.041717 7.241214 -0.121657 -11.028932 -15.643123 -112.380224 -62.642658 147.653438 16.112830 2.249283 -13.517734 -9.290212 5.086510 -0.939964 -4.461893 -9.420181 19.261664 125.862955 -72.276245 -149.986117 4.697405 -6.997351 7.628685 3.148648 -12.335895 -6.726308 2.730362 61.287272 -1.592305 1.643736 -9.875166 10.478649 0.054429 -0.123069 -0.013455 0.734531 -1.508384 7.069002 119.478496 83.925006 128.077577 -4.708095 -16.462506 -10.305492 0.362254 -21.409291 -1.010536
-51.482674 62.258042 13.992031 175.900608 -54.421755 0.228225 4.671140 26.835879 0.548507 0.687965 4.487518 0.063624 1.112062 7.119530 0.116535 3.552410 21.598621 0.815431 4.162559 18.235688 6.297338 5.671418 -1.889977 10.131263 6.041810 8.072968 7.210055 -0.104506 -11.007161 -15.623324 -112.418237 -62.653953 147.702450 16.122177 2.251933 -13.493453 -9.295335 5.130106 -0.942617 -4.487105 -9.413984 19.277820 125.762655 -72.281446 -149.985086 4.673293 -6.973893 7.574698 3.177616 -12.315916 -6.793966 2.765439 61.294379 -1.569035 1.638812 -9.890159 10.480368 0.052964 -0.126119 -0.010289 0.777795 -1.477199 7.021410 119.235451 83.937413 127.821226 -4.748751 -16.443214 -10.300433 0.386869 -21.411492 -0.995919
-51.479538 62.261432 13.997580 175.880042 -54.423881 0.246159 4.655691 26.855847 0.554598 0.707446 4.472898 0.046898 1.110095 7.138623 0.125774 3.558027 21.606375 0.819949 4.172519 18.248602 6.251867 5.707170 -1.899638 10.028866 6.003716 8.101101 7.196298 -0.112634 -10.957987 -15.593868 -112.451854 -62.663686 147.749782 16.127674 2.254777 -13.472141 -9.301140 5.193967 -0.931507 -4.510898 -9.390732 19.296934 125.664776 -72.285591 -149.978518 4.647576 -6.954023 7.513910 3.170869 -12.317842 -6.800534 2.775460 61.288509 -1.555330 1.651057 -9.885138 10.465633 0.046035 -0.138305 -0.003279 0.796836 -1.472403 7.032981 119.149130 83.950065 127.730296 -4.749141 -16.440540 -10.301125 0.381615 -21.402607 -0.988263
-51.475934 62.265005 14.002957 175.862496 -54.423527 0.260465 4.657170 26.871885 0.560352 0.707225 4.471116 0.045895 1.113566 7.149756 0.128786 3.561089 21.605179 0.819737 4.184276 18.254058 6.204329 5.735015 -1.931068 9.927058 5.957562 8.149215 7.187948 -0.089325 -10.970482 -15.585862 -112.372436 -62.681060 147.653374 16.127033 2.257736 -13.453475 -9.310169 5.206473 -0.932812 -4.534640 -9.297122 19.327623 125.551149 -72.285179 -149.949570 4.618017 -6.932313 7.450820 3.163026 -12.320344 -6.804270 2.786907 61.280710 -1.539779 1.649240 -9.882733 10.461498 0.050689 -0.144495 -0.004730 0.815822 -1.467734 7.043683 119.048646 83.962051 127.627552 -4.741321 -16.446214 -10.305638 0.365397 -21.385803 -0.977623
